<?xml version="1.0" encoding="utf-8"?>
<!-- Generator: Adobe Illustrator 24.0.0, SVG Export Plug-In . SVG Version: 6.00 Build 0)  -->
<svg version="1.1" id="Layer_1" xmlns="http://www.w3.org/2000/svg" xmlns:xlink="http://www.w3.org/1999/xlink" x="0px" y="0px"
	 viewBox="0 0 290.62 276.78" style="enable-background:new 0 0 290.62 276.78;" xml:space="preserve">
<style type="text/css">
	.st0{fill:#0087FF;}
	.st1{fill:#30333A;}
	.st2{fill:#FFFFFF;}
	.st3{fill:#8E8E8E;}
</style>
<g id="Logo_3_">
	<g id="Logo-OpenCommerce-Assets_3_" transform="translate(-595.000000, -210.000000)">
		<g id="Group_3_" transform="translate(595.000000, 210.000000)">
			<g id="Open-Commerce_3_" transform="translate(-0.000000, 0.000000)">
				<path id="XMLID_137_" class="st1" d="M247.06,224.09c-25.34,32.1-64.6,52.69-108.67,52.69C61.96,276.78,0,214.82,0,138.39
					S61.96,0,138.39,0c44.07,0,83.33,20.6,108.67,52.69c-3.86-0.53-7.8-0.8-11.8-0.8c-17.95,0-34.62,5.47-48.44,14.82
					c-13.82-9.36-30.49-14.82-48.44-14.82c-47.77,0-86.49,38.72-86.49,86.49s38.72,86.49,86.49,86.49
					c17.95,0,34.62-5.47,48.44-14.82c13.82,9.36,30.49,14.82,48.44,14.82C239.27,224.88,243.2,224.61,247.06,224.09L247.06,224.09z
					 M235.26,193.75c-30.57,0-55.36-24.78-55.36-55.36s24.78-55.36,55.36-55.36s55.36,24.78,55.36,55.36
					S265.84,193.75,235.26,193.75z"/>
			</g>
		</g>
	</g>
</g>
</svg>
